<svg xmlns="http://www.w3.org/2000/svg" data-name="Layer 1" viewBox="0 0 48 48" x="0px" y="0px"><title>Building_6</title><path  style="fill:teal;" d="M48,31a6,6,0,0,0-2.24-4.65A3.84,3.84,0,0,0,46,25a4,4,0,0,0-8,0,3.84,3.84,0,0,0,.24,1.35A6,6,0,0,0,41,36.91V46H33V19a1,1,0,0,0-1-1H21V1a1,1,0,0,0-1-1H4A1,1,0,0,0,3,1V46H1a1,1,0,0,0,0,2H47a1,1,0,0,0,0-2H43V36.91A6,6,0,0,0,48,31ZM5,2H19V46H5ZM21,46V20H31v5H26a1,1,0,0,0,0,2h5v3H26a1,1,0,0,0,0,2h5v3H26a1,1,0,0,0,0,2h5v3H26a1,1,0,0,0,0,2h5v4ZM38,31a4,4,0,0,1,2-3.45,1,1,0,0,0,.47-.64,1,1,0,0,0-.15-.79,2,2,0,1,1,3.32,0,1,1,0,0,0-.15.79,1,1,0,0,0,.47.64A4,4,0,0,1,46,31a4,4,0,0,1-3,3.86V33a1,1,0,0,0-2,0v1.86A4,4,0,0,1,38,31ZM18,6a1,1,0,0,1-1,1H7A1,1,0,0,1,7,5H17A1,1,0,0,1,18,6Zm0,5a1,1,0,0,1-1,1H7a1,1,0,0,1,0-2H17A1,1,0,0,1,18,11Zm0,5a1,1,0,0,1-1,1H7a1,1,0,0,1,0-2H17A1,1,0,0,1,18,16Zm0,5a1,1,0,0,1-1,1H7a1,1,0,0,1,0-2H17A1,1,0,0,1,18,21Zm0,5a1,1,0,0,1-1,1H7a1,1,0,0,1,0-2H17A1,1,0,0,1,18,26Zm0,5a1,1,0,0,1-1,1H7a1,1,0,0,1,0-2H17A1,1,0,0,1,18,31Zm0,5a1,1,0,0,1-1,1H7a1,1,0,0,1,0-2H17A1,1,0,0,1,18,36Zm0,5a1,1,0,0,1-1,1H7a1,1,0,0,1,0-2H17A1,1,0,0,1,18,41Z"/></svg>